<?xml version="1.0" encoding="UTF-8" standalone="no"?>
<svg
   xmlns:dc="http://purl.org/dc/elements/1.1/"
   xmlns:cc="http://creativecommons.org/ns#"
   xmlns:rdf="http://www.w3.org/1999/02/22-rdf-syntax-ns#"
   xmlns:svg="http://www.w3.org/2000/svg"
   xmlns="http://www.w3.org/2000/svg"
   xmlns:sodipodi="http://sodipodi.sourceforge.net/DTD/sodipodi-0.dtd"
   xmlns:inkscape="http://www.inkscape.org/namespaces/inkscape"
   width="92.711037mm"
   height="92.711037mm"
   viewBox="0 0 92.711037 92.711037"
   version="1.1"
   id="svg1211"
   inkscape:export-filename="/home/sheep/com.gnusicianproject.gnusician.png"
   inkscape:export-xdpi="17.53405"
   inkscape:export-ydpi="17.53405"
   inkscape:version="1.0.2 (e86c870879, 2021-01-15)"
   sodipodi:docname="gnusician.svg">
  <defs
     id="defs1205" />
  <sodipodi:namedview
     id="base"
     pagecolor="#ffffff"
     bordercolor="#666666"
     borderopacity="1.0"
     inkscape:pageopacity="0.0"
     inkscape:pageshadow="2"
     inkscape:zoom="1.5033458"
     inkscape:cx="179.04345"
     inkscape:cy="212.59154"
     inkscape:document-units="mm"
     inkscape:current-layer="layer1"
     inkscape:document-rotation="0"
     showgrid="false"
     fit-margin-top="0"
     fit-margin-left="0"
     fit-margin-right="0"
     fit-margin-bottom="0"
     inkscape:window-width="1533"
     inkscape:window-height="991"
     inkscape:window-x="26"
     inkscape:window-y="23"
     inkscape:window-maximized="0" />
  <metadata
     id="metadata1208">
    <rdf:RDF>
      <cc:Work
         rdf:about="">
        <dc:format>image/svg+xml</dc:format>
        <dc:type
           rdf:resource="http://purl.org/dc/dcmitype/StillImage" />
        <dc:title></dc:title>
      </cc:Work>
    </rdf:RDF>
  </metadata>
  <g
     inkscape:label="Layer 1"
     inkscape:groupmode="layer"
     id="layer1"
     transform="translate(-44.883419,-23.182652)">
    <circle
       style="fill:#00796b;fill-opacity:1;stroke:none;stroke-width:0.264583"
       id="path1283"
       cx="91.238937"
       cy="69.53817"
       r="46.355518" />
    <g
       id="g1886"
       transform="matrix(0.12535411,0,0,0.12535411,59.241381,38.559173)">
      <g
         id="g1872">
        <g
           id="g1870">
          <path
             d="m 76.838,472.39 c 42.335,42.335 111.432,43.106 153.53,0.535 19.892,-20.115 30.232,-46.123 31.022,-72.366 0.585,-19.439 12.301,-36.881 29.987,-44.968 7.397,-3.383 14.341,-8.08 20.478,-14.095 28.842,-28.267 28.263,-74.974 -0.292,-103.53 l -37.53,-37.53 c -28.556,-28.556 -75.263,-29.134 -103.53,-0.292 -6.015,6.137 -10.712,13.081 -14.095,20.478 -8.087,17.686 -25.529,29.402 -44.968,29.987 -26.242,0.79 -52.25,11.13 -72.366,31.022 -42.571,42.098 -41.8,111.195 0.535,153.53 z"
             fill="#fac574"
             id="path1846" />
          <g
             id="g1852">
            <circle
               cx="185.493"
               cy="326.50699"
               fill="#685e67"
               r="41.209999"
               id="circle1848" />
            <path
               d="m 214.635,355.648 c -16.092,16.092 -42.191,16.092 -58.283,0 -11.861,-11.861 -14.979,-29.147 -9.355,-43.865 2.005,5.254 5.123,10.177 9.355,14.418 16.092,16.092 42.191,16.092 58.283,0 4.241,-4.241 7.359,-9.164 9.364,-14.418 5.615,14.718 2.497,32.004 -9.364,43.865 z"
               fill="#554e55"
               id="path1850" />
          </g>
          <path
             d="m 311.851,341.501 c -6.136,6.016 -13.074,10.708 -20.474,14.087 -17.686,8.091 -29.397,25.537 -29.989,44.968 -0.792,26.249 -11.129,52.257 -31.022,72.37 -42.101,42.572 -111.192,41.8 -153.524,-0.531 L 54.543,450.096 c 42.331,42.331 111.433,43.103 153.524,0.531 19.892,-20.113 30.239,-46.121 31.022,-72.36 0.592,-19.441 12.302,-36.887 29.989,-44.968 7.399,-3.389 14.348,-8.081 20.484,-14.097 28.836,-28.264 28.254,-74.977 -0.301,-103.532 l 22.299,22.299 c 28.555,28.555 29.136,75.257 0.291,103.532 z"
             fill="#e8b66b"
             id="path1854" />
          <g
             id="g1858">
            <path
               d="M 254.839,289.776 434.832,102.992 409.008,77.168 222.223,257.161 c -2.02,1.946 -2.05,5.171 -0.066,7.155 l 25.527,25.527 c 1.983,1.983 5.208,1.953 7.155,-0.067 z"
               fill="#c76d3d"
               id="path1856" />
          </g>
          <g
             id="g1862">
            <path
               d="m 254.841,289.772 c -1.95,2.021 -5.175,2.056 -7.16,0.071 L 229.73,271.892 c 1.985,1.985 5.218,1.957 7.161,-0.071 l 179.985,-186.778 17.951,17.951 z"
               fill="#aa5e33"
               id="path1860" />
          </g>
          <g
             id="g1868">
            <path
               d="M 431.143,105.481 406.519,80.857 c -2.057,-2.057 -2.256,-5.326 -0.463,-7.618 l 46.483,-59.393 c 4.396,-5.617 12.716,-6.123 17.76,-1.079 L 499.232,41.7 c 5.044,5.044 4.539,13.364 -1.079,17.76 l -59.393,46.483 c -2.291,1.793 -5.56,1.595 -7.617,-0.462 z"
               fill="#fac574"
               id="path1864" />
            <path
               d="m 503.598,55.195 -64.842,50.748 c -2.29,1.794 -5.551,1.595 -7.607,-0.461 l -20,-20 c 2.056,2.056 5.325,2.262 7.614,0.468 l 64.843,-50.748 c 2.715,-2.134 2.963,-6.168 0.525,-8.607 l 19.993,19.993 c 2.445,2.446 2.196,6.48 -0.526,8.607 z"
               fill="#e8b66b"
               id="path1866" />
          </g>
        </g>
      </g>
      <g
         id="g1884">
        <path
           d="m 219.936,360.95 c 18.991,-18.992 18.991,-49.894 0,-68.886 -4.35,-4.35 -9.415,-7.794 -15.054,-10.24 -3.799,-1.646 -8.218,0.097 -9.864,3.898 -1.647,3.8 0.098,8.217 3.897,9.865 3.9,1.691 7.404,4.074 10.413,7.083 13.144,13.144 13.144,34.529 0.001,47.673 -6.367,6.367 -14.833,9.873 -23.837,9.873 -9.005,0 -17.47,-3.506 -23.837,-9.873 -6.366,-6.367 -9.873,-14.832 -9.873,-23.836 0,-9.004 3.507,-17.469 9.874,-23.837 3.042,-3.042 6.587,-5.444 10.538,-7.138 3.807,-1.633 5.569,-6.042 3.937,-9.849 -1.632,-3.806 -6.038,-5.57 -9.849,-3.937 -5.712,2.45 -10.837,5.921 -15.233,10.318 -9.2,9.2 -14.267,21.432 -14.267,34.443 0,13.011 5.066,25.243 14.267,34.443 9.2,9.2 21.432,14.267 34.443,14.267 13.011,-10e-4 25.243,-5.067 34.444,-14.267 z"
           id="path1874" />
        <path
           d="m 509.802,66.852 -4.208,-4.208 c 2.692,-3.17 4.326,-7.15 4.582,-11.367 0.337,-5.536 -1.72,-10.959 -5.642,-14.881 l -3.282,-3.282 c -2.93,-2.929 -7.677,-2.929 -10.606,0.001 -2.929,2.929 -2.929,7.678 10e-4,10.606 l 3.281,3.281 c 1.214,1.214 1.32,2.629 1.276,3.365 -0.045,0.736 -0.322,2.128 -1.674,3.186 l -58.177,45.532 -22.439,-22.44 45.531,-58.176 c 1.058,-1.352 2.45,-1.629 3.186,-1.673 0.728,-0.05 2.151,0.061 3.365,1.275 l 2.555,2.555 c 2.929,2.929 7.678,2.929 10.606,10e-4 2.93,-2.929 2.93,-7.677 0.001,-10.606 l -2.555,-2.556 c -3.921,-3.921 -9.328,-5.978 -14.882,-5.642 -4.217,0.256 -8.197,1.89 -11.368,4.582 l -4.208,-4.207 c -2.928,-2.93 -7.677,-2.929 -10.606,0 -2.929,2.929 -2.929,7.678 0.001,10.606 l 5.211,5.211 -6.493,8.297 -3.977,-3.977 c -2.929,-2.929 -7.678,-2.93 -10.606,0 -2.93,2.929 -2.93,7.677 -0.001,10.606 l 5.27,5.271 -6.493,8.296 -2.967,-2.967 c -2.929,-2.929 -7.678,-2.931 -10.606,-10e-4 -2.93,2.929 -2.93,7.678 -10e-4,10.607 l 4.261,4.261 -7.99,10.209 c -2.138,2.733 -3.033,6.076 -2.75,9.322 L 277.549,193.431 c -15.181,-14.31 -34.876,-22.166 -55.803,-22.166 -0.141,0 -0.282,0 -0.423,0.001 -21.398,0.108 -41.35,8.499 -56.177,23.628 -6.494,6.626 -11.729,14.233 -15.559,22.609 -6.888,15.062 -21.95,25.114 -38.373,25.609 C 82.046,243.99 54.553,255.776 33.801,276.297 12.09,297.768 0.086,326.549 0,357.339 c -0.088,31.395 12.096,60.916 34.306,83.126 l 37.229,37.228 c 19.771,19.771 46.004,31.833 73.867,33.964 2.98,0.228 5.954,0.341 8.921,0.341 24.618,0 48.541,-7.791 68.178,-22.348 3.327,-2.466 4.025,-7.164 1.559,-10.491 -2.466,-3.328 -7.163,-4.025 -10.492,-1.559 C 173.98,506.945 117.48,502.424 82.143,467.086 L 44.914,429.858 C 25.547,410.493 14.924,384.753 15,357.381 c 0.075,-26.768 10.497,-51.776 29.348,-70.417 18.046,-17.846 41.953,-28.094 67.317,-28.858 22.082,-0.665 42.321,-14.154 51.563,-34.364 3.106,-6.792 7.355,-12.965 12.631,-18.348 12.003,-12.247 28.176,-19.04 45.539,-19.128 h 0.345 c 16.827,0 32.687,6.222 44.998,17.581 l -49.722,47.914 c -2.438,2.35 -3.799,5.509 -3.83,8.895 -0.031,3.386 1.271,6.569 3.664,8.963 l 25.527,25.527 c 2.367,2.366 5.503,3.665 8.845,3.665 h 0.119 c 3.386,-0.031 6.545,-1.391 8.895,-3.83 l 47.914,-49.722 c 11.437,12.396 17.665,28.387 17.58,45.343 -0.088,17.363 -6.881,33.536 -19.128,45.539 -5.382,5.275 -11.556,9.525 -18.347,12.631 -20.211,9.241 -33.7,29.481 -34.364,51.563 -0.607,20.154 -7.167,39.399 -18.971,55.655 -2.434,3.352 -1.689,8.042 1.663,10.476 1.331,0.966 2.872,1.432 4.4,1.432 2.319,0 4.607,-1.073 6.075,-3.094 13.58,-18.703 21.127,-40.84 21.825,-64.017 0.494,-16.423 10.546,-31.485 25.609,-38.373 8.375,-3.83 15.981,-9.065 22.608,-15.559 15.129,-14.827 23.52,-34.777 23.628,-56.176 0.106,-21.083 -7.758,-40.943 -22.165,-56.226 L 434.053,114.609 c 0.387,0.034 0.775,0.056 1.163,0.056 2.873,0 5.756,-0.928 8.164,-2.813 l 10.208,-7.99 4.262,4.262 c 1.464,1.464 3.384,2.196 5.303,2.196 1.919,0 3.839,-0.732 5.304,-2.197 2.929,-2.929 2.929,-7.678 -10e-4,-10.606 l -2.968,-2.968 8.297,-6.493 5.27,5.271 c 1.465,1.465 3.384,2.197 5.304,2.197 1.919,0 3.839,-0.732 5.303,-2.197 2.93,-2.929 2.93,-7.677 0.001,-10.606 l -3.978,-3.978 8.296,-6.493 5.212,5.212 c 1.465,1.464 3.385,2.197 5.304,2.197 1.919,0 3.839,-0.732 5.304,-2.197 2.93,-2.932 2.93,-7.681 0.001,-10.61 z m -88.511,39.384 -15.48,16.064 -16.111,-16.111 16.064,-15.48 z m -38.106,39.543 -16.965,-16.965 12.676,-12.215 16.504,16.504 z m -25.976,26.957 -17.945,-17.945 16.153,-15.566 17.357,17.358 z m -25.977,26.956 -18.924,-18.925 16.153,-15.566 18.337,18.337 z m -52.422,54.4 -20.902,-20.902 16.397,-15.8 20.306,20.306 z m 26.211,-27.2 -19.914,-19.913 16.397,-15.801 19.317,19.318 z m -53.825,55.856 -21.944,-21.944 17.853,-17.204 21.295,21.295 z"
           id="path1876" />
        <path
           d="m 144.885,410.514 c 1.919,0 3.839,-0.732 5.304,-2.197 2.929,-2.929 2.929,-7.678 0,-10.606 L 114.29,361.812 c -2.93,-2.929 -7.678,-2.929 -10.607,0 -2.929,2.929 -2.929,7.678 0,10.606 l 35.899,35.899 c 1.464,1.464 3.384,2.197 5.303,2.197 z"
           id="path1878" />
        <path
           d="m 83.332,382.162 c -2.929,2.929 -2.929,7.678 0,10.606 l 35.899,35.899 c 1.465,1.464 3.385,2.197 5.304,2.197 1.919,0 3.839,-0.732 5.304,-2.197 2.929,-2.929 2.929,-7.678 0,-10.606 L 93.94,382.162 c -2.931,-2.929 -7.679,-2.929 -10.608,0 z"
           id="path1880" />
        <path
           d="m 458.747,42.647 -12.251,12.252 c -2.929,2.929 -2.929,7.678 0.001,10.607 1.464,1.464 3.384,2.196 5.303,2.196 1.919,0 3.839,-0.732 5.304,-2.197 l 12.251,-12.252 c 2.929,-2.929 2.929,-7.678 -0.001,-10.607 -2.929,-2.929 -7.678,-2.928 -10.607,10e-4 z"
           id="path1882" />
      </g>
    </g>
  </g>
</svg>
