<?xml version="1.0" encoding="iso-8859-1"?>
<!-- Generator: Adobe Illustrator 19.0.0, SVG Export Plug-In . SVG Version: 6.00 Build 0)  -->
<svg version="1.1" id="Capa_1" xmlns="http://www.w3.org/2000/svg" xmlns:xlink="http://www.w3.org/1999/xlink" x="0px" y="0px"
	 viewBox="0 0 512 512" style="enable-background:new 0 0 512 512;" xml:space="preserve">
<path style="fill:#FF7956;" d="M191.411,512h-50.11c-4.239,0-7.676-3.437-7.676-7.676c0-4.239,3.437-7.676,7.676-7.676h42.434
	v-45.423c0-4.239,3.437-7.676,7.676-7.676c4.239,0,7.676,3.437,7.676,7.676v53.098C199.087,508.563,195.65,512,191.411,512z"/>
<path style="fill:#73B7DD;" d="M456.599,360.876c23.585,11.303,33.542,39.587,22.239,63.174
	c-11.303,23.585-39.587,33.542-63.174,22.239c-23.585-11.303-88.944-66.14-77.64-89.726
	C349.327,332.976,433.013,349.572,456.599,360.876z"/>
<path style="fill:#94CBED;" d="M483.612,313.513c23.533,11.413,33.359,39.742,21.947,63.275
	c-11.412,23.533-39.742,33.359-63.275,21.947c-23.533-11.413-88.638-66.55-77.226-90.083
	C376.47,285.118,460.079,302.1,483.612,313.513z"/>
<circle style="fill:#B3DBF4;" cx="26.731" cy="88.524" r="17.62"/>
<path style="fill:#FF9478;" d="M66.716,147.736V74.357L7.942,101.295c-8.343,3.824-8.343,15.679,0,19.503L66.716,147.736z"/>
<path style="fill:#95A1DB;" d="M293.953,207.474h-78.157V87.956C215.797,39.58,176.216,0,127.84,0l0,0
	C79.464,0,39.884,39.58,39.884,87.956v161.741c0,0,0,214.89,212.537,214.89c47.762,0,83.946-11.48,111.311-29.591
	C466.041,367.293,416.635,207.474,293.953,207.474z"/>
<path style="fill:#8A8AC4;" d="M199.794,459.627c15.907,3.199,33.399,4.959,52.627,4.959c47.762,0,83.946-11.48,111.311-29.591
	c102.309-67.703,52.903-227.522-69.779-227.522h-78.157c0,0-62.384,94.868,3.668,183.784c7.166,9.647,9.064,22.204,4.884,33.469
	C220.159,436.013,212.716,449.594,199.794,459.627z"/>
<g>
	<circle style="fill:#CAE7FC;" cx="40.332" cy="88.524" r="17.62"/>
	<path style="fill:#CAE7FC;" d="M215.797,207.474c0,0-21.077,189.842,200.74,204.718c15.944,1.069,29.601-11.241,30.129-27.211
		c1.862-56.308-7.011-177.507-130.391-177.507C215.797,207.474,215.797,207.474,215.797,207.474z"/>
</g>
<g>
	<path style="fill:#B3DBF4;" d="M396.162,410.262c6.554,0.812,13.341,1.459,20.375,1.931c15.944,1.069,29.601-11.241,30.129-27.211
		c1.862-56.308-7.011-177.507-130.391-177.507c-19.28,0-34.849,0-47.439,0C268.836,207.474,398.752,246.646,396.162,410.262z"/>
	<path style="fill:#B3DBF4;" d="M303.607,347.953c-8.93-6.811-17.262-14.181-24.312-22.513
		c-6.405-7.569-12.068-15.991-16.829-25.034c-1.975-3.751-0.535-8.393,3.216-10.367c3.75-1.975,8.393-0.535,10.367,3.216
		c4.243,8.058,9.277,15.551,14.964,22.269c6.258,7.395,13.534,14.13,21.624,20.016c3.428,2.494,4.185,7.295,1.692,10.722
		C312.826,348.326,307.195,350.689,303.607,347.953z"/>
</g>
<path style="fill:#F7AFD1;" d="M134.616,130.874h-20.381c-6.667,0-12.123-5.456-12.123-12.123l0,0
	c0-6.667,5.456-12.123,12.123-12.123h20.381c6.667,0,12.123,5.456,12.123,12.123l0,0
	C146.74,125.418,141.284,130.874,134.616,130.874z"/>
<path style="fill:#FF737D;" d="M376.564,52.447c-14.377-15.748-39.128-15.698-54.112-0.713
	c-14.985-14.985-39.736-15.034-54.112,0.713c-36.548,40.034,17.309,82.433,42.408,98.951c7.101,4.674,16.307,4.674,23.409,0
	C359.255,134.881,413.112,92.483,376.564,52.447z"/>
<path style="fill:#FF5555;" d="M304.231,41.584c-12.645-2.976-26.488,0.563-35.891,10.863
	c-36.548,40.034,17.309,82.433,42.408,98.951c7.101,4.674,16.307,4.674,23.409,0c5.815-3.828,13.174-9.046,20.595-15.3
	C353.647,135.618,278.036,79.729,304.231,41.584z"/>
<path style="fill:#FF9478;" d="M278.382,512h-50.109c-4.239,0-7.676-3.437-7.676-7.676c0-4.239,3.437-7.676,7.676-7.676h42.433
	v-45.423c0-4.239,3.437-7.676,7.676-7.676c4.239,0,7.676,3.437,7.676,7.676v53.098C286.057,508.563,282.621,512,278.382,512z"/>
<path style="fill:#57565C;" d="M87.047,102.567c-4.24,0-7.676-3.437-7.676-7.676V82.15c0-4.239,3.436-7.676,7.676-7.676
	s7.676,3.437,7.676,7.676v12.742C94.722,99.131,91.286,102.567,87.047,102.567z"/>
<g>
</g>
<g>
</g>
<g>
</g>
<g>
</g>
<g>
</g>
<g>
</g>
<g>
</g>
<g>
</g>
<g>
</g>
<g>
</g>
<g>
</g>
<g>
</g>
<g>
</g>
<g>
</g>
<g>
</g>
</svg>
