<svg id="Capa_1" enable-background="new 0 0 512 512" height="512" viewBox="0 0 512 512" width="512" xmlns="http://www.w3.org/2000/svg"><g><path d="m431.52 191.819 79.59 90.317s-50.345 35.41-105.153 0h-299.914c-54.808 35.41-105.153 0-105.153 0l79.59-90.317" fill="#f1b986"/><path d="m414.792 253.486c0 28.763-7.654 55.743-21.036 79.015-11.167 19.419-17.389 41.31-18.09 63.696-.906 29.381-12.578 58.483-34.995 80.9-21.314 21.314-48.872 32.863-76.944 34.645-5.151.34-10.302.34-15.453 0-28.072-1.782-55.63-13.331-76.944-34.645-22.417-22.417-34.078-51.52-34.995-80.89-.711-22.746-7.397-44.813-18.605-64.613-12.96-22.88-20.408-49.304-20.521-77.459-.35-87.895 69.815-158.864 157.721-159.441 88.192-.577 159.862 70.733 159.862 158.792z" fill="#f1d0a5"/><path d="m256 512c-30.707 0-61.403-11.632-84.667-34.896-22.422-22.422-34.084-51.527-34.998-80.899-.719-22.74-7.392-44.803-18.603-64.607-12.966-22.884-20.41-49.309-20.523-77.46-.359-87.9 69.822-158.862 157.723-159.437h.606c-37.945.575-68.231 71.537-68.077 159.438.051 28.15 3.265 54.576 8.86 77.46 4.836 19.804 7.72 41.867 8.028 64.607.39 29.372 5.431 58.477 15.102 80.899 10.051 23.263 23.295 34.895 36.549 34.895z" fill="#f1b986"/><path d="m222.234 260.257c-13.316-1.243-24.557-8.716-31.108-19.281-10.215 7.33-23.643 9.886-36.527 5.749-13.429-4.312-23.11-14.897-26.827-27.483-12.905 4.671-27.842 2.782-39.412-6.324-13.305-10.461-18.398-27.483-14.301-42.862-17.443-4.692-30.316-20.584-30.378-39.515-.072-18.962 12.72-34.967 30.163-39.752-4.179-15.379.862-32.462 14.146-42.975 11.56-9.148 26.518-11.088 39.433-6.437 3.696-12.587 13.356-23.192 26.795-27.534 12.884-4.158 26.323-1.622 36.549 5.698 6.529-10.564 17.761-18.058 31.086-19.311 13.172-1.242 25.481 3.881 33.869 12.854 8.378-8.984 20.677-14.127 33.849-12.906 13.326 1.232 24.568 8.695 31.118 19.25 10.205-7.33 23.633-9.897 36.517-5.77 13.439 4.312 23.11 14.876 26.847 27.452 12.884-4.681 27.832-2.813 39.412 6.273 13.305 10.441 18.418 27.442 14.363 42.811 17.453 4.64 30.358 20.482 30.491 39.403v.338.288c0 18.941-12.833 34.895-30.275 39.638 4.137 15.369-.924 32.421-14.219 42.914-11.57 9.126-26.518 11.036-39.423 6.385-3.717 12.587-13.377 23.171-26.816 27.504-12.884 4.148-26.313 1.602-36.538-5.718-6.54 10.554-17.771 18.038-31.097 19.291-13.172 1.232-25.471-3.902-33.859-12.874-7.556 8.1-18.305 13.069-29.999 13.069-1.272 0-2.566-.062-3.859-.175z" fill="#f9f6f9"/><path d="m241.042 248.964c-4.569-5.328-7.915-11.816-9.774-18.87-4.517 1.827-9.281 2.762-14.055 2.762-8.891 0-17.833-3.213-25.358-9.845-10.307-9.076-15.677-22.556-15.677-36.179 0-3.973.452-7.946 1.376-11.837-8.726-2.628-16.303-8.388-21.703-16.139-5.41-7.761-8.644-17.514-8.675-28.12v-.174c0-21.169 12.771-39.002 30.163-44.351-.955-3.953-1.427-8.008-1.427-12.042 0-13.572 5.339-27.021 15.574-36.097 7.546-6.683 16.539-9.938 25.471-9.938 4.743 0 9.476.924 13.962 2.731 1.848-7.053 5.185-13.541 9.743-18.88 1.868-2.187 3.932-4.178 6.191-5.934-6.211-3.727-13.449-5.852-21.097-5.852-1.283 0-2.587.061-3.901.185-6.663.626-12.802 2.813-18.089 6.16-5.287 3.357-9.733 7.864-12.997 13.151-6.899-4.938-15.246-7.7-23.91-7.7-4.189 0-8.439.647-12.638 2.002-6.724 2.176-12.494 5.913-17.052 10.677s-7.895 10.564-9.743 16.857c-4.486-1.612-9.209-2.433-13.962-2.433-8.932 0-17.925 2.895-25.471 8.87-10.236 8.1-15.574 20.101-15.574 32.226 0 3.604.472 7.217 1.427 10.749-17.391 4.774-30.163 20.697-30.163 39.598v.154c.031 9.466 3.265 18.171 8.675 25.101 5.4 6.92 12.987 12.074 21.703 14.414-.924 3.47-1.376 7.022-1.376 10.564 0 12.166 5.369 24.198 15.677 32.298 7.525 5.924 16.467 8.788 25.348 8.788 4.784 0 9.548-.832 14.065-2.464 1.858 6.293 5.205 12.084 9.774 16.847 4.558 4.753 10.338 8.48 17.052 10.636 4.178 1.345 8.408 1.981 12.576 1.981 8.675 0 17.042-2.772 23.952-7.731 6.55 10.564 17.792 18.038 31.107 19.28 1.294.113 2.587.174 3.86.174 5.852 0 11.457-1.242 16.549-3.501 1.53-.678 3.018-1.448 4.456-2.31-2.209-1.722-4.231-3.673-6.059-5.808z" fill="#e2dfe2"/><g fill="#282528"><path d="m168.18 270.833c-12.863 0-23.328 15.64-23.328 34.865 0 19.224 10.465 34.865 23.328 34.865s23.328-15.64 23.328-34.865-10.465-34.865-23.328-34.865z"/><path d="m343.82 270.833c-12.863 0-23.328 15.64-23.328 34.865s10.465 34.865 23.328 34.865 23.328-15.64 23.328-34.865-10.465-34.865-23.328-34.865z"/></g><g fill="#f1b986"><path d="m256 476.123c-1.977 0-3.955-.755-5.463-2.263l-33.182-33.182c-3.018-3.017-3.018-7.909 0-10.927 3.017-3.017 7.909-3.017 10.927 0l27.718 27.719 27.719-27.718c3.017-3.018 7.909-3.018 10.927 0 3.018 3.017 3.018 7.909 0 10.927l-33.182 33.182c-1.509 1.507-3.487 2.262-5.464 2.262z"/><path d="m263.726 468.392v43.35c-5.151.34-10.302.34-15.453 0v-43.35c0-4.265 3.461-7.726 7.726-7.726 4.266 0 7.727 3.462 7.727 7.726z"/></g></g></svg>